<?xml version="1.0" encoding="utf-8"?>
<!-- Generator: Adobe Illustrator 19.0.0, SVG Export Plug-In . SVG Version: 6.00 Build 0)  -->
<svg version="1.1" id="Layer_1" xmlns="http://www.w3.org/2000/svg" xmlns:xlink="http://www.w3.org/1999/xlink" x="0px" y="0px"
	 viewBox="0 0 612 792" style="enable-background:new 0 0 612 792;" xml:space="preserve">
<style type="text/css">
	.st0{fill:#00BBFF;}
</style>
<g>
	<rect x="14" y="239.5" class="st0" width="545.5" height="352.3"/>
	<g>
		<g>
			<path d="M430.4,239.5c8.5,0,17,0,25.4,0c0.1,0.4,0.2,0.8,0.4,1.1c1.9,2.4,3.8,4.8,5.6,7.3c2,2.6,4,5.3,6,8
				c1.2,1.6,2.5,3.1,3.7,4.7c0.9,1.2,1.7,2.5,2.6,3.7c1.6,2,3.3,3.9,4.9,5.9c1.9,2.4,3.7,5,5.6,7.4c0.7,0.9,1.5,1.8,2.2,2.8
				c0.2-0.8,0.2-1.4,0.2-2c0-12.9,0-25.8,0-38.7c7.6,0,15.2,0,22.8,0c0,0.3,0,0.6,0.1,0.9c0.1,0.4,0.2,0.7,0.3,1.1
				c0.4-0.2,0.7-0.3,1.1-0.5c0.7-0.3,1.3-0.5,2-0.9c0.3-0.1,0.5-0.4,0.7-0.7c9.4,0,18.7,0,28.1,0c0.2,0.2,0.4,0.5,0.7,0.7
				c0.3,0.2,0.7,0.1,1,0.2c1.8,1,3.6,2.1,5.4,3.2c2.2,1.4,4.1,3.1,5.6,5.2c0.8,1.2,1.5,2.6,2.1,3.9c0.8,1.6,1.3,3.2,1.3,5
				c0,0.2,0.1,0.4,0,0.5c-0.3,0.3-0.6,0.8-0.8,0.8c-7,0-14.1,0-21.1,0c-0.3,0-0.9-0.5-0.8-0.8c0.1-1.3-0.9-2-1.7-2.4
				c-1.9-0.8-4-1.6-6.2-1.4c-0.9,0.1-1.8,0.4-2.8,0.5c-1.3,0.2-3.1,1.7-3.3,2.8c-0.2,1.8,0.8,3.9,2.3,4.5c1.2,0.5,2.4,0.9,3.6,1.3
				c0.5,0.2,1.1,0.5,1.6,0.6c1.5,0.3,3,0.5,4.5,0.8c0.1,0,0.2,0,0.4,0.1c1.6,0.4,3.2,0.9,4.8,1.3c1.1,0.3,2.3,0.4,3.4,0.8
				c1.9,0.7,3.8,1.5,5.6,2.4c1.8,0.9,3.7,1.9,5.3,3.2c1.6,1.2,3.1,2.7,4.4,4.2c1.1,1.3,2.3,2.6,2.3,4.6c0,4.7,0,9.4,0,14.2
				c0,0.7-0.2,1.4-0.5,2c-0.7,1.2-1.5,2.4-2.5,3.4c-1.3,1.3-2.8,2.6-4.3,3.7c-1.5,1.1-3.1,2.1-4.8,3c-1.1,0.6-2.3,1.1-3.4,1.6
				c0.4,0.3,0.8,0.4,1.2,0.4c4.2,0,8.4,0,12.6,0c1.7,0,1.7,0,1.7,1.7c0,46.7,0,93.4,0,140c0,0.4,0,0.8,0,1.4c-9.4,0-18.6,0-28.2,0
				c2.2,1.2,4,2.1,5.8,3.2c1.7,1,3.4,1.9,4.8,3.2c3.1,2.5,6,5.3,8.2,8.7c0.9,1.4,1.8,2.9,2.6,4.4c0.9,1.6,1.8,3.1,2.4,4.8
				c0.7,1.8,1.2,3.7,1.5,5.6c0.4,2.3,0.5,4.6,0.7,6.8c0.1,1-0.3,1.4-1.4,1.4c-10.4,0-20.8,0-31.2,0c-1.4,0-1.7-0.2-1.6-1.6
				c0.1-1.9-0.7-3.3-2.2-4.3c-1.2-0.8-2.5-1.5-3.8-2.1c-0.8-0.4-1.7-0.5-2.6-0.6c-0.4-0.1-0.8-0.2-1.2-0.2c-0.8-0.1-1.6-0.5-2.3-0.3
				c-1.7,0.6-3.6,0.7-5.1,1.8c-1.6,1.2-3,2.6-3.3,4.5c-0.3,2-0.5,4.1,0.5,6.1c1,2.3,2.7,3.6,4.8,4.7c1.8,0.9,3.6,1.5,5.5,2.2
				c1.2,0.5,2.5,0.9,3.8,1.3c1.5,0.5,3,1,4.5,1.5c0.5,0.2,0.9,0.3,1.4,0.4c1,0.3,2.1,0.5,3.1,0.8c1,0.3,2.1,0.8,3.1,1.2
				c1.9,0.7,3.9,1.4,5.7,2.2c1.6,0.7,3.2,1.6,4.7,2.5c1.9,1.2,3.7,2.4,5.5,3.8c1.4,1.1,2.6,2.3,3.8,3.5c2.5,2.4,4.6,5,6.3,8
				c0.8,1.3,1.3,2.7,2.1,4c1.1,1.8,1.9,3.6,1.9,5.7c0,8.3,0,16.6,0,25c0,2.8-0.2,5.5-1.8,8.1c-1.5,2.4-2.8,5-4.4,7.3
				c-1.4,2-3.3,3.9-5.1,5.6c-1.6,1.5-3.6,2.7-5.3,4.1c-2,1.7-4.2,3-6.6,4c-0.7,0.3-1.5,0.5-2,1c-0.8,0.6-1.6,0.9-2.6,0.9
				c-12.7,0-25.4,0-38,0c-0.5,0-1.1,0-1.5-0.2c-1.4-0.7-2.8-1.4-4.1-2.3c-2.9-1.9-5.9-3.6-8.6-5.7c-2.7-2.2-5.2-4.7-7.1-7.7
				c-0.6-0.9-1.4-1.7-2-2.6c-0.1,0-0.2,0.1-0.3,0.1c0,6.1,0,12.3,0,18.4c-20.8,0-41.5,0-62.3,0c0-0.8-0.1-1.5-0.1-2.4
				c-0.3,0.2-0.4,0.4-0.6,0.5c-1.8,0.5-3.5,0.9-5.3,1.4c-0.7,0.2-1.4,0.5-2,0.5c-10.1,0-20.2,0-30.2,0c-0.3,0-0.7-0.1-1-0.2
				c-1.2-0.3-2.5-0.7-3.7-1c-0.3-0.1-0.5-0.1-0.8-0.2c-1.1-0.4-2.1-0.8-3.2-1.2c-1.2-0.4-2.4-0.6-3.6-1.1c-1.6-0.7-3.2-1.5-4.8-2.2
				c-1.3-0.6-2.7-0.9-3.9-1.6c-2.1-1.2-4.1-2.5-6-3.8c-2.3-1.6-4.5-3.3-6.8-5.1c0,5.4,0,10.8,0,16.3c-11.5,0-22.9,0-34.2,0
				c-0.1-0.7-0.1-1.2-0.1-1.9c-0.7,0.1-1.2,0-1.8,0.2c-1.3,0.4-2.5,0.8-3.7,1.2c-0.8,0.2-1.6,0.5-2.4,0.5c-9.2,0.1-18.4,0-27.6,0.1
				c-2.7,0.1-5.2-1-7.7-1.4c-1.9-0.3-3.7-1.2-5.5-1.9c-2.4-0.9-4.9-1.8-7.2-2.8c-2.1-0.9-4-2.2-6-3.3c-1.6-0.9-3.1-1.8-4.6-2.8
				c-1.6-1.1-3-2.5-4.5-3.7c-0.1,0-0.2,0.1-0.3,0.1c1.7,5.2,3.5,10.4,5.2,15.7c-12,0-24,0-35.9,0c-0.4-1.2-0.7-2.3-1-3.5
				c-0.6-2-1.2-3.9-1.8-5.9c0-0.1-0.1-0.3-0.2-0.4c-0.6-1.4-1.3-2.8-1.7-4.2c-0.4-1.6-0.5-1.8-2.2-1.8c-9.6,0-19.3,0-28.9,0
				c-4.6,0-9.2,0-13.8,0c-0.5,0-1.3,0.2-1.5,0.6c-0.7,1.3-1.2,2.7-1.7,4.1c-0.3,1-0.5,2-0.8,3c-0.6,1.6-1.2,3.2-1.9,4.8
				c-0.2,0.6-0.6,1.2-0.7,1.8c-0.2,1.4-0.5,1.7-1.9,1.7c-17.8,0-35.7,0-53.5,0c-0.5,0-0.9,0-1.5-0.1c0-17.4,0-34.6,0-51.9
				c-14.1,0-28,0-42,0c0,17.4,0,34.6,0,51.9c-10.1,0-20,0-30,0c0-46.6,0-93.1,0-139.7c9.4,0,18.9,0,28.3,0c1.7,0,1.7,0,1.7,1.8
				c0,17.2,0,34.4,0,51.6c0,0.5,0,0.9,0,1.4c14.1,0,28,0,41.9,0c0-18,0-35.9,0-54c-9.3,0-18.6,0-27.9,0c-0.1-0.4-0.1-0.6-0.2-0.9
				c-0.8-2.1-1.7-4.1-2.5-6.3c-0.4-1-0.5-2-0.8-3c-0.2-0.8-0.3-1.7-0.7-2.4c-1-1.6-1.4-3.3-1.9-5.1c-0.3-0.9-0.5-1.8-0.8-2.7
				c-0.6-1.6-1.2-3.2-1.8-4.9c-0.6-1.7-1.2-3.4-1.8-5.1c-0.3-0.9-0.6-1.8-0.9-2.7c-0.3-1-0.5-2.1-0.9-3.1c-0.6-1.6-1.2-3.2-1.8-4.8
				c-0.3-0.9-0.5-1.9-0.8-2.9c-0.6-1.6-1.3-3.1-1.8-4.7c-0.5-1.6-1-3.2-1.5-4.7c-0.6-1.6-1.2-3.2-1.8-4.8c-0.3-0.8-0.5-1.7-0.8-2.5
				c-0.3-1-0.6-2.1-0.9-3.1c-0.3-1-0.7-1.9-1.1-2.8c-0.3-0.9-0.5-1.9-0.9-2.8c-0.4-1-0.8-2-1.2-3c-0.3-1-0.4-2-0.8-3
				c-0.8-2.1-1.7-4.1-2.5-6.2c-0.8-2.1-1.4-4.3-2.1-6.4c-0.6-1.7-1.2-3.4-1.8-5.2c-0.3-0.8-0.6-1.7-0.8-2.5c-0.3-1-0.5-2.1-0.8-3
				c-0.4-1-0.9-2-1.3-3.1c-0.3-0.8-0.5-1.7-0.9-2.5c-0.4-1-0.8-1.9-1.1-2.8c-0.5-1.7-0.9-3.4-1.5-5.1c-0.5-1.5-1.3-3-1.8-4.5
				c-0.6-1.7-1-3.4-1.4-5.1c-0.2-0.8-0.4-1.5-0.7-2.3c-0.4-1-0.9-2.1-1.3-3.1c-0.1-0.2-0.3-0.3-0.4-0.4c0-7.6,0-15.2,0-22.8
				c0.2-0.4,0.5-0.7,0.7-1.1c1-2,2.1-4,3.1-6.1c0.8-1.7,1.6-3.4,2.4-5.1c0.6-1.2,1.1-2.4,1.6-3.6c0.7-1.5,1.3-3,2-4.5
				c0.7-1.5,1.4-3,2.1-4.4c0.6-1.1,1.1-2.3,1.7-3.4c0.6-1.2,1.1-2.4,1.6-3.6c0.8-1.7,1.7-3.3,2.5-5c0.7-1.5,1.4-3,2.1-4.5
				c0.6-1.3,1.1-2.7,1.7-4c0.7-1.5,1.6-3,2.3-4.5c0.6-1.4,1.2-2.8,1.8-4.2c0.5-1,1.1-1.9,1.5-2.9c0.9-2,1.8-4,2.8-6
				c7.4,0,14.7,0,22.1,0c0.3,0.8,0.5,1.6,0.9,2.3c0.3,0.6,0.7,1.2,1,1.8c0.5,1.1,1,2.3,1.5,3.5c0.5,1.2,1,2.5,1.5,3.7
				c0.6,1.3,1.2,2.6,1.8,3.9c0.4,0.8,0.8,1.6,1.1,2.4c0.5,1.1,1,2.2,1.5,3.3c0.3,0.8,0.6,1.7,1,2.5c1,2.3,2.1,4.6,3.1,6.9
				c0.3,0.7,0.6,1.5,0.9,2.3c0.1,0,0.2,0,0.3,0c0-10.9,0-21.8,0-32.7c8.5,0,17,0,25.4,0c0,0.1,0,0.3,0,0.4c1.2,1.7,2.3,3.4,3.5,5
				c1.6,2.1,3.4,4.1,5.1,6.2c1.6,2.1,3.2,4.2,4.8,6.3c1.8,2.5,3.6,5,5.5,7.4c1.6,2.1,3.3,4.1,5,6.1c2.3,2.9,4.5,5.8,6.7,8.7
				c0.2,0.2,0.4,0.5,0.5,0.7c0.1,0,0.2-0.1,0.3-0.1c0-0.3,0-0.7,0-1c0-12.7,0-25.4,0-38.1c0-0.5,0-1,0.1-1.6c13.8,0,27.7,0,41.5,0
				c0.6,0.2,1.2,0.5,1.8,0.7c0.4,0.1,1,0.1,1.4,0.2c0.9,0.3,1.7,0.8,2.6,1.1c1.7,0.5,3.4,0.9,5.1,1.4c0.7,0.2,1.5,0.4,2.1,0.8
				c1.4,0.8,2.7,1.6,4.3,2.5c0-2.4,0-4.6,0-6.8c27.2,0,54.4,0,81.6,0c0.5,0.2,0.9,0.6,1.4,0.7c0.9,0.1,1.9,0,2.9,0.2
				c1.9,0.5,3.7,1.2,5.6,1.8c1.6,0.5,3.4,0.8,4.9,1.6c2.8,1.6,5.9,2.7,8.5,4.9c1.8,1.5,3.8,2.9,5.2,5.1c0.3-0.4,0.7-0.7,0.8-1.1
				c0.7-2.7,2.6-4.5,4.4-6.4c1.7-1.8,3.7-3.3,5.9-4.5c1.1-0.6,2.4-1,3.6-1.6c0.2-0.1,0.2-0.4,0.4-0.6c9.4,0,18.7,0,28.1,0
				c0.3,0.2,0.5,0.5,0.9,0.7c0.4,0.2,0.8,0.4,1.2,0.6c0.6,0.3,1.2,0.5,1.8,0.8c1.4,0.8,2.9,1.5,4.2,2.5c2,1.6,3.9,3.5,5.7,5.2
				c0.9-0.7,1.9-1.5,3-2.1c1.5-0.8,3.1-1.6,4.6-2.3c1.1-0.5,2.2-1,3.4-1.5c1-0.4,2-0.8,3-1.1c1-0.3,2.2-0.4,3.2-0.8
				c1.6-0.7,3.1-1.3,4.8-1.3c0.3,0,0.7-0.4,1.1-0.6c7.8,0,15.5,0,23.3,0c0.2,0.2,0.4,0.6,0.6,0.6c1.3,0.3,2.6,0.5,3.9,0.8
				c1,0.2,2,0.5,3,0.8c1,0.3,2,0.7,3,1.1c1.3,0.5,2.5,1,3.8,1.6c0.2,0.1,0.5,0.3,0.7,0.4c1.4,0.7,2.7,1.3,4.1,2
				c0.5,0.3,1.1,0.5,1.9,0.9C430.4,244.8,430.4,242.1,430.4,239.5z M329.7,330.7c-1.6,1.4-2.9,2.5-4.1,3.6c-1.3,1.2-2.6,2.4-3.9,3.6
				c-2.3,2.1-4.6,4.2-6.9,6.3c-3.3,3.1-6.6,6.2-9.9,9.3c-0.5,0.5-0.8,0.4-1.3,0.1c-1.5-1-2.6-2.3-4.1-3.3c-3.1-2.1-6.4-3.8-9.9-5
				c-2.7-0.9-5.5-1.5-8.3-2.1c-1.5-0.3-3.1-0.6-4.6-0.5c-2.7,0.1-5.4,0.3-8.1,0.5c-0.1,0-0.2,0-0.2,0.1c-1.7,0.4-3.3,0.8-5,1.2
				c-1.1,0.3-2.1,0.5-3.2,0.8c-0.7,0.2-1.4,0.4-2.1,0.7c-1.2,0.6-2.4,1.2-3.5,1.9c-1.9,1.2-4,2.3-5.8,3.6c-1.8,1.4-3.4,3-5,4.6
				c-1,1-2,2.2-2.9,3.4c-1.1,1.4-2.1,2.9-2.9,4.5c-0.7,1.2-1.1,2.5-1.6,3.9c-0.5,1.3-1,2.5-1.4,3.8c-0.5,1.6-1.2,3.2-1.2,4.8
				c0.1,4.1-0.8,8.3,0.6,12.4c0.4,1.3,0.4,2.8,0.8,4.1c0.7,1.8,1.8,3.5,2.5,5.2c1.2,2.9,3.2,5.3,5.2,7.7c2.8,3.3,6.1,6.1,10,8.1
				c2.1,1.1,4.2,2.3,6.4,3.2c1.7,0.7,3.5,1.1,5.3,1.5c2.3,0.5,4.6,1,6.9,1.1c3.8,0.2,7.6,0.3,11.4-0.6c0.6-0.1,1.2-0.3,1.8-0.4
				c0.9-0.3,1.8-0.5,2.8-0.8c1.1-0.3,2.3-0.4,3.3-0.9c2.2-1,4.3-2.1,6.4-3.2c0.9-0.5,1.5-1.1,1.4-2.2c-0.1-1.4-0.1-2.8,0-4.2
				c0.1-1.1-0.3-1.5-1.5-1.5c-9.1,0-18.2,0-27.4,0.1c-1.1,0-1.5-0.2-1.5-1.4c0-10.2,0-20.4,0-30.6c0-1.1,0.3-1.4,1.4-1.4
				c21,0,42,0,63,0c1.7,0,1.9,0.1,1.9,1.8c0,9.2,0,18.3,0,27.5c0,0.4,0.1,0.9,0.1,1.3c0.1,0,0.1,0,0.2,0
				c11.3-31.1,22.6-62.2,34-93.5c5.2,0,10.4,0,15.8,0c-3.8-1.2-7.4-2-10.8-3.4c-3.4-1.4-6.6-3.2-10-5c-0.1,0-0.3,0.2-0.6,0.5
				c-1.7,1.4-3.1,3.1-5.2,4c-1,0.4-1.8,1-2.8,1.5c-1.5,0.8-3,1.7-4.7,2.3c-1.5,0.6-3.2,1-4.8,1.3c-2,0.4-4,0.6-6,0.7
				c-2.7,0.1-5.4,0.1-8,0c-2.2-0.1-4.4-0.4-6.6-0.7c-1.2-0.2-2.3-0.8-3.5-1.1c-0.8-0.3-1.6-0.5-2.5-0.7c0.2,0.4,0.4,0.7,0.5,1
				c-0.4,0.1-0.7,0.3-1.1,0.3c-8.2,0-16.3,0-24.5,0c-0.4,0-0.9,0-1.1-0.2c-0.7-0.6-1.4-1.4-2.1-2.1c-2.2-2.6-4.2-5.2-6.4-7.7
				c-1.6-1.9-3.4-3.7-5-5.7c-1.4-1.7-2.8-2.8-5.2-2.4c-1.3,0.3-2.7,0-4,0c0,5.9,0,11.5,0,17.3c4.5,0,8.9,0,13.3,0
				c0.4,0,0.9,0.1,1.3,0.2c1.6,0.3,3.3,0.7,4.9,1c1.5,0.3,3.1,0.5,4.6,0.8c0.1,0,0.1,0.1,0.2,0.1c1.3,0.4,2.5,0.8,3.8,1.2
				c1.1,0.3,2.2,0.6,3.3,1c1.2,0.5,2.4,1.1,3.6,1.6c1,0.4,2,0.7,3,1.1c1.5,0.7,2.9,1.5,4.3,2.3c1.6,0.9,3.3,1.7,4.9,2.7
				c2.2,1.4,4.3,3,6.4,4.6C326.2,327.7,327.8,329.2,329.7,330.7z M301.3,546.4c-9.8,0-19.5,0-29.3,0c0-0.5,0-0.9,0-1.3
				c0-9.9,0-19.8,0-29.8c0-1.7,0.1-1.7,1.8-1.7c12,0,24.1,0,36.1,0c0.5,0,0.9,0,1.3,0c0.3-0.7,0.9-1.3,0.8-1.8
				c-0.3-2.6,1.2-4.8,1.4-7.2c0.1-1,0.4-2,0.8-2.9c0.4-1.1,0.8-2.2,1.3-3.3c0.9-2.3,1.7-4.7,2.9-6.8c1.2-2.2,2.1-4.5,3.8-6.5
				c1.6-1.9,2.9-4.2,4.5-6.1c1.8-2.2,3.8-4.2,5.9-6.2c1.7-1.7,3.6-3.3,5.4-4.8c1.1-0.9,2.4-1.8,3.6-2.6c1.2-0.9,2.4-1.7,3.7-2.5
				c0.9-0.6,1.9-0.9,2.9-1.4c1.9-1,3.8-2.3,5.8-3.2c1.9-0.9,3.9-1.4,5.9-2.1c0.8-0.3,1.7-0.5,2.5-0.8c1.2-0.4,2.5-0.9,3.7-1.2
				c1.3-0.3,2.6-0.6,3.9-0.8c2-0.4,4.1-1,6.1-1.1c7.1-0.1,14.2-0.7,21.2,0.6c0.8,0.2,1.6,0.3,2.4,0.5c1,0.2,2.1,0.5,3.1,0.8
				c1.3,0.3,2.6,0.4,3.8,0.8c1.8,0.5,3.5,1.2,5.3,1.9c1.8,0.7,3.7,1.4,5.4,2.2c1.9,0.9,3.8,2.2,5.7,3.1c3.6,1.8,6.6,4.2,9.7,6.7
				c1.3,1,2.5,2.2,3.8,3.3c0-6.5,0-12.8,0-19.3c-7.3,0-14.6,0-21.8,0c-0.3-1.3-0.6-2.5-1-3.7c-0.6-1.7-1.3-3.5-1.9-5.2
				c-0.3-0.8-0.6-1.5-0.9-2.3c-0.4-1-0.8-2-1.2-2.9c-0.3-0.8-0.4-1.7-0.9-2.4c-0.2-0.4-0.9-0.8-1.4-0.8c-15.2,0-30.3,0-45.5,0
				c-1,0-1.4,0.4-1.6,1.4c-0.2,1-0.5,2-0.9,3c-0.3,1-0.8,1.9-1.2,2.9c-0.7,2-1.3,3.9-2.1,5.9c-0.3,1-1.1,1.8-1.2,2.8
				c-0.1,1.3-0.8,1.4-1.8,1.4c-17.6,0-35.2,0-52.8,0c-0.2,0-0.4,0-0.6,0c-0.8,0-1.1-0.3-1-1.1c0.1-0.7,0.2-1.3,0.3-2.2
				c-3.5,0.9-6.9,1.8-10.6,2.8c0.4,0.2,0.5,0.3,0.7,0.3c1.6,0.2,3.3,0.4,4.9,0.7c1.2,0.2,2.3,0.4,3.4,0.7c1.2,0.4,2.4,0.9,3.6,1.3
				c1,0.3,2.1,0.5,3.1,0.8c0.9,0.3,1.8,0.7,2.7,1.1c1,0.5,2,1,3,1.4c1.5,0.7,3,1.3,4.4,2c0.3,0.1,0.5,0.5,0.8,0.6
				c0.7,0.3,1.4,0.5,2,0.9c1.5,1,3,2.1,4.5,3.2c1.6,1.1,3.2,2.2,4.7,3.4c1.1,0.9,2.1,1.8,3.2,2.8c0.6,0.5,0.5,1.4-0.1,1.9
				c-1.6,1.5-3.3,3-4.9,4.6c-1.8,1.7-3.6,3.5-5.4,5.3c-2.3,2.2-4.7,4.5-7.1,6.7c-1.8,1.7-3.5,3.4-5.3,5c-0.2,0.2-0.8,0.3-1,0.1
				c-2.6-2.3-5.3-4.4-8.5-5.9c-1.8-0.8-3.7-1.7-5.5-2.5c-0.9-0.4-2-0.6-3-0.8c-1.8-0.4-3.6-1-5.4-1.1c-4.6-0.1-9.2-0.6-13.8,0.5
				c-1.4,0.3-2.8,0.5-4.1,0.7c-0.1,0-0.2,0.1-0.3,0.1c-0.7,0.4-1.3,0.8-2,1.1c-2,0.9-4.1,1.7-6.1,2.8c-1.8,1-3.7,2.1-5.3,3.5
				c-1.9,1.7-3.5,3.6-5.1,5.6c-1.6,2-3.1,4.1-4.3,6.3c-1.2,2.2-2,4.6-2.8,7c-0.6,1.9-1.1,3.9-1.3,5.8c-0.4,3.9,0,7.8,0.6,11.6
				c0,0.1,0.1,0.2,0.1,0.3c0.6,1.7,1.2,3.4,1.9,5.1c0.8,1.9,1.7,3.8,2.7,5.7c0.7,1.2,1.4,2.5,2.4,3.5c1.5,1.8,3.2,3.4,4.8,5.1
				c1.7,1.8,3.6,3.3,5.8,4.4c2,1.1,3.9,2.1,5.9,3.1c0.6,0.3,1.2,0.6,1.9,0.8c1.2,0.3,2.3,0.5,3.5,0.8c1.7,0.4,3.5,1.1,5.2,1.1
				c5.1,0.2,10.2,0.4,15.2-1.2c1.5-0.5,3-0.6,4.4-1.4c2.4-1.2,4.9-2.3,7.4-3.5c0.4-0.2,0.7-0.9,0.8-1.3
				C301.3,550.8,301.3,548.7,301.3,546.4z M407.6,546.5c-0.6,0-1,0-1.4,0c-8.8,0-17.6,0-26.4,0c-1.2,0-1.6-0.2-1.6-1.5
				c0.1-9.8,0-19.7,0-29.5c0-1.8,0-1.9,1.9-1.9c18.3,0,36.6,0,54.8,0c0.4,0,0.9,0,1.3,0c0-13.6,0-27,0-40.7c-1.6,1.5-3,2.9-4.4,4.3
				c-2.4,2.4-4.8,4.8-7.2,7.1c-1.9,1.8-4,3.5-5.9,5.4c-1.9,1.8-3.7,3.7-5.5,5.5c-0.2,0.2-0.8,0.2-1,0.1c-0.6-0.4-1-1.1-1.5-1.5
				c-1.7-1.2-3.5-2.4-5.3-3.5c-1.2-0.7-2.3-1.6-3.6-1.9c-2.1-0.6-4-2.1-6.3-2.2c-1.5-0.1-2.9-1-4.4-1c-4.9,0-9.8-0.7-14.6,0.5
				c-1.8,0.4-3.6,0.6-5.3,1.4c-0.4,0.2-0.9,0.5-1.3,0.6c-2.3,0.6-4.3,1.6-6.2,2.9c-1.4,1-3.1,1.7-4.3,2.8c-2.1,1.8-4,3.8-6,5.9
				c-0.8,0.9-1.5,1.9-2.1,3c-0.7,1.1-1.3,2.2-1.8,3.4c-0.8,1.6-1.6,3.1-2.2,4.8c-0.4,1.1-0.4,2.4-0.9,3.5c-0.8,1.9-0.9,3.9-1.1,5.8
				c-0.3,3-0.2,6,0.5,8.9c0.4,1.5,0.5,3.1,0.8,4.6c0,0.1,0.1,0.1,0.1,0.2c0.4,0.9,0.8,1.8,1.2,2.7c0.7,1.6,1.4,3.3,2.3,4.8
				c1.1,1.8,2.5,3.3,3.7,5.1c2.3,3.5,5.7,5.8,9,8.2c2,1.5,4.4,2.3,6.6,3.4c0.6,0.3,1.2,0.6,1.9,0.7c1.2,0.3,2.3,0.6,3.5,0.8
				c1.8,0.4,3.6,1.1,5.5,1.1c3.7,0.1,7.5,0.6,11.2-0.5c1.6-0.5,3.3-0.5,5-0.8c0.9-0.2,1.8-0.5,2.6-0.8c0.7-0.3,1.3-0.8,2-1.1
				c2-1,4-1.8,5.9-2.9c0.4-0.2,0.8-0.9,0.8-1.4C407.6,550.7,407.6,548.7,407.6,546.5z M75.1,396.7c0.5-1.4,1.1-2.6,1.5-3.9
				c0.8-2.2,1.4-4.4,2.2-6.6c0.6-1.6,1.3-3.2,1.8-4.8c0.5-1.4,0.9-2.8,1.4-4.3c0.2-0.5,0.5-0.9,0.6-1.4c0.3-1,0.5-2,0.8-3
				c0.6-1.7,1.3-3.4,1.9-5.1c0.7-2.1,1.4-4.2,2.1-6.4c0.4-1.1,0.9-2.1,1.2-3.2c0.5-1.6,0.9-3.1,1.4-4.7c0.6-1.8,1.3-3.5,1.9-5.3
				c0.3-0.8,0.5-1.5,0.8-2.3c0.4-1.1,0.9-2.3,1.3-3.4c0.5-1.4,0.9-2.7,1.5-4.1c0.4-1,0.8-1.9,1.2-2.8c0.6-1.8,1.1-3.6,1.7-5.3
				c0.5-1.5,1.1-2.9,1.6-4.3c0.4-1,0.6-2.1,0.9-3.1c0.6-1.6,1.2-3.2,1.8-4.8c0.5-1.5,1-3.1,1.6-4.6c0.4-1.1,0.8-2.2,1.1-3.3
				c0.3-1.2,0.8-1.7,2-1.7c8.2,0,16.4,0,24.6,0c0.5,0,0.9,0,1.4,0c0.1-0.1,0.2-0.2,0.2-0.3c-10-12.9-20-25.9-30.1-38.9
				c0,0.5,0,0.9,0,1.4c0,12.9,0,25.8,0,38.6c0,1-0.3,1.4-1.3,1.4c-9.2,0-18.4,0-27.6,0c-0.8,0-1.4-0.2-1.7-0.9
				c-0.5-1.2-1.1-2.4-1.6-3.6c-0.3-0.8-0.4-1.8-0.8-2.5c-0.5-0.9-1-1.9-2.5-1.7c-1.5,0.2-3,0-4.6,0c-7.8,0-15.6,0-23.4,0
				c-0.7,0-1.3-0.1-1.6,0.8c-0.4,1.2-1.2,2.3-1.7,3.5c-0.3,0.6-0.5,1.3-0.8,2.2c0.6,0,1,0,1.4,0c2.5,0,5,0,7.6,0
				c0.3,0,0.9,0.2,1,0.5c0.5,1.3,1,2.6,1.4,3.9c0.6,1.8,1.3,3.6,1.9,5.3c0.3,0.8,0.6,1.5,0.7,2.3c0.2,2,1,3.7,1.9,5.4
				c0.1,0.2,0.1,0.4,0.1,0.6c0.5,1.7,0.9,3.5,1.5,5.2c0.6,1.8,1.3,3.6,1.9,5.4c0.3,0.8,0.5,1.7,0.8,2.5c0.4,1,0.9,1.9,1.2,3
				c0.4,1.1,0.6,2.3,0.9,3.4c0.2,0.8,0.5,1.5,0.8,2.3c0.6,1.5,1.2,3,1.7,4.5c0.4,1.1,0.8,2.2,1.1,3.3c0.3,1.1,0.6,2.1,0.9,3.2
				c0.3,1,0.5,2.1,0.8,3.1c0.3,1,0.8,1.9,1.2,2.9c0.3,0.9,0.6,1.7,0.9,2.6c0.4,1.2,0.8,2.4,1.2,3.6c0.3,1,0.7,2.1,1,3.1
				c0.5,1.4,1.1,2.7,1.5,4.1c0.6,1.8,1,3.7,1.5,5.6c0.2,0.7,0.4,1.5,0.7,2.2c0.6,1.6,1.3,3.2,1.8,4.8C74,393,74.5,394.8,75.1,396.7z
				 M453.3,310.3c0.6,0,1,0,1.5,0c6.8,0,13.7,0,20.5,0c0.9,0,1.5,0.4,1.9,1c1.4,2.2,2.7,4.4,4,6.6c1.4,2.3,2.8,4.7,4.1,7.1
				c1.1,1.9,2.2,3.9,3.3,5.8c1.1,1.9,2.3,3.8,3.5,5.6c0.3,0.5,0.6,1,0.9,1.5c1,1.5,2,3,2.9,4.5c1,1.7,1.9,3.6,2.9,5.3
				c0.6,1,1.3,1.9,1.9,2.9c1.2,2,2.4,4,3.6,5.9c0.5,0.8,1.1,1.6,1.6,2.5c1.1,1.9,2.2,3.7,3.3,5.6c1.2,2.1,2.4,4.2,3.7,6.3
				c0.7,1.2,1.3,2.4,2,3.6c0.6,1,1.3,2,1.9,3c1,1.7,2,3.4,3,5.1c0.9,1.5,1.9,3,2.8,4.5c1,1.8,2,3.6,3,5.4c0.1,0,0.2-0.1,0.2-0.1
				c0-26.8,0-53.6,0-80.5c-5.5,0.1-10.7-1.4-15.7-3.3c-0.1,0.1-0.2,0.2-0.2,0.3c-0.3,1.7-0.3,1.7-2,1.7c-6.8,0-13.7-0.1-20.5,0.1
				c-1.9,0-3-0.8-4-2.1c-2.3-3-4.6-6-6.9-9.1c-1.2-1.6-2.3-3.2-3.5-4.8c-1.6-2.1-3.1-4.1-4.7-6.1c-1.4-1.8-2.9-3.5-4.4-5.3
				c-1.9-2.4-3.7-4.9-5.5-7.3c-0.4-0.5-0.9-1-1.3-1.6c-1.2-1.5-2.4-3.1-3.7-4.9C453.3,283.2,453.3,296.7,453.3,310.3z M521.5,450.1
				c-0.9-1.5-1.6-2.6-2.3-3.8c-2-3.4-4-6.7-6-10.1c-0.9-1.5-1.7-3-2.6-4.5c-0.4-0.7-0.9-1.3-1.3-1.9c-0.9-1.4-1.7-2.9-2.5-4.3
				c-0.9-1.5-1.9-3.1-2.8-4.6c-0.8-1.3-1.4-2.7-2.2-4c-1.2-2-2.6-3.9-3.8-5.9c-0.8-1.3-1.5-2.8-2.2-4.1c-1.5-2.5-3-5-4.5-7.5
				c-1.4-2.2-2.7-4.5-4-6.7c-1.1-1.9-2.2-3.7-3.3-5.6c-0.8-1.3-1.7-2.6-2.5-4c-0.8-1.3-1.5-2.6-2.2-4c-0.9-1.7-1.8-3.4-2.8-5
				c-0.9-1.4-1.9-2.7-3-4.2c0,27.7,0,55.2,0,82.9c-1.2,0-2.2,0-3.1,0c0,8.4,0,16.7,0,25c0.5-1.1,0.7-2.3,1.2-3.3c1-2,2.2-4,3.4-5.9
				c1.1-1.6,2.2-3.2,3.5-4.6c2.1-2.2,4.1-4.4,6.7-6.2c1.7-1.2,3.4-2.4,5.2-3.2c0.5-0.2,1-0.5,1.5-0.8c1.1-0.6,2.1-1.2,3.2-1.7
				c0.7-0.3,1.5-0.5,2.2-0.7c1.2-0.3,2.5-0.6,3.7-0.8c1.9-0.4,3.9-0.8,5.9-1.2c1.3-0.2,2.7-0.4,4-0.5c0.6-0.1,1.2-0.1,1.8,0
				c1.7,0.2,3.3,0.4,5,0.6c0.5,0.1,0.9,0.3,1.3,0.4C519.6,449.9,520.4,450,521.5,450.1z M430.3,302c-2,0.9-3.9,1.6-5.6,2.6
				c-2,1.2-4.1,2.1-6.4,2.6c-0.9,0.2-1.7,0.4-2.5,0.8c-2.1,1-4.4,1.3-6.6,1.7c-2,0.4-4.1,0.6-6.4,0.9c11.5,33.4,23,66.7,34.5,100.1
				c0.1,0,0.2,0,0.4,0c0.1-0.5,0.2-1,0.2-1.4c0-32.4,0-64.9,0-97.3c0-1.2-0.3-1.5-1.5-1.5c-2,0.1-4,0-6.1,0
				C430.3,307.6,430.3,304.9,430.3,302z M206.3,506.7c0.1-0.2,0.2-0.4,0.3-0.5c0.6-1.5,1.1-3,1.7-4.4c0.5-1.4,0.9-3,1.4-4.4
				c0.9-2.2,1.7-4.4,2.8-6.4c1.7-3.1,3.4-6.3,5.6-9.1c2.1-2.8,4.2-5.5,6.9-7.8c2.4-1.9,4.5-4.2,6.8-6.3c1.2-1.1,2.6-2,4-2.9
				c2.2-1.4,4.3-2.8,6.6-4c1.5-0.8,3.1-1.3,4.6-2c1.8-0.8,3.5-1.7,5.3-2.5c0.8-0.3,1.7-0.5,2.5-0.7c1.2-0.3,2.4-0.5,3.6-0.8
				c1.5-0.4,3-0.8,4.4-1.3c0.4-0.1,0.7-0.4,1.1-0.7c-0.4-0.2-0.7-0.5-1.1-0.5c-1.1-0.2-2.1-0.1-3.2-0.3c-1.3-0.2-2.5-0.7-3.8-1
				c-0.3-0.1-0.6-0.1-0.9-0.2c-1.3-0.4-2.7-0.8-4-1.2c-1.1-0.3-2.2-0.4-3.2-0.9c-2.3-1-4.6-2.1-7-3.1c-1.5-0.7-3-1.4-4.6-2.1
				c-0.5-0.2-1-0.5-1.4-0.8c-1.5-1-3-2-4.4-3c-2.3-1.7-4.8-3.3-7-5.1c-2.3-1.9-4.3-4.1-6.6-6.3c0,0.5-0.1,0.8-0.1,1.2
				c0,7.4,0,14.7,0,22.1c0,1.6,0,1.6-1.6,1.6c-8.4,0-16.7,0-25.1,0c-0.4,0-0.9,0-1.5,0c0.3,1.2,0.6,2.2,0.9,3.2
				c0.5,1.4,1.2,2.8,1.7,4.3c0.6,1.7,1,3.5,1.5,5.2c0.2,0.8,0.4,1.6,0.7,2.4c0.4,1,0.8,2,1.2,3c0.3,0.9,0.7,1.7,1,2.6
				c0.3,1,0.7,2.1,1,3.1c0.3,1.1,0.5,2.2,0.8,3.2c0.3,1,0.8,2,1.2,3c0.3,0.8,0.5,1.6,0.7,2.4c0.4,1,0.9,2,1.2,3
				c0.3,1,0.5,2.1,0.8,3.1c0.8,2.2,1.7,4.3,2.4,6.5c0.6,1.7,1,3.5,1.4,5.2c0.2,0.8,0.4,1.6,0.7,2.3
				C206,505.9,206.2,506.3,206.3,506.7z M120.5,552.6c0.6-1.7,1.1-3.4,1.7-5.1c0.3-0.9,0.5-1.8,0.9-2.7c0.7-1.9,1.6-3.8,2.3-5.8
				c0.7-1.9,1.3-3.8,2-5.8c0.7-2.2,1.4-4.4,2.1-6.6c0.2-0.8,0.5-1.5,0.8-2.2c0.4-1.1,0.9-2.1,1.2-3.1c0.4-1,0.6-2,1-3
				c0.5-1.4,1.1-2.8,1.6-4.2c0.4-1,0.6-2.1,1-3.2c0.3-0.9,0.7-1.9,1-2.8c0.5-1.5,1-3,1.6-4.5c0.3-0.9,0.7-1.8,1-2.8
				c0.3-1,0.5-2,0.8-3c0.2-0.8,0.5-1.5,0.8-2.2c0.3-0.8,0.7-1.7,1.1-2.5c0.3-0.9,0.6-1.8,0.9-2.6c0.4-1,0.8-2,1.1-3
				c0.4-1.1,0.7-2.2,1.1-3.3c0.5-1.3,1.1-2.6,1.5-3.9c0.4-1,0.5-2.1,0.9-3.1c0.4-1.1,0.8-2.3,1.3-3.4c0.7-2,1.4-4,2.2-6
				c0.6-1.6,1.2-3.1,1.7-4.7c0.5-1.4,1-2.8,1.4-4.2c0.2-0.5,0.4-1,0.6-1.5c0.3-0.8,0.5-1.7,0.8-2.5c0.2-0.6,0.5-1.2,0.7-1.9
				c-12.1,0-23.8,0-35.4,0C119.9,455.2,120.1,551.9,120.5,552.6z M397.6,293.7c0,0.1,0,0.2,0,0.3c3.1-0.4,6.2-0.6,9.2-1.1
				c1-0.2,2-0.7,3-1.1c1-0.4,1.9-1,2.9-1.4c2-0.8,3.8-1.9,5.3-3.4c2-2.1,4.3-4,5-7c0.4-1.6,1-3.2,1.2-4.9c0.1-1.1-0.5-2.2-0.5-3.3
				c0-1.5-0.7-2.6-1.3-3.9c-1.1-2.2-2.6-4-4.5-5.6c-1.7-1.5-3.8-2.5-5.8-3.7c-2-1.1-4.1-1.6-6.1-2.3c-1.7-0.6-3.7-0.7-5.6-0.8
				c-2.2-0.1-4.4,0-6.6,0c-0.4,0-0.8,0.1-1.2,0.2c-1.6,0.4-3.1,0.8-4.7,1.2c-1,0.3-2.1,0.4-3,0.8c-1.7,0.8-3.3,1.7-4.9,2.6
				c-0.8,0.4-1.7,0.9-2.3,1.5c-0.9,0.9-1.6,1.9-2.5,2.8c-1.8,1.9-3.2,4.2-3.5,6.6c-0.4,2.6-0.5,5.3,0.4,8c0.7,2.1,1.8,3.8,3,5.4
				c2.2,2.8,5.2,4.8,8.5,6.2c1.3,0.6,2.7,1,4,1.4c1.7,0.5,3.5,1,5.3,1.2C394.5,293.9,396.1,293.7,397.6,293.7z M470,502.6
				c0,0.4-0.1,0.8-0.1,1.3c0,1.3,0,2.6,0,4c0,12.6,0,25.1,0,37.7c0,1.6,0,1.6,1.6,1.6c1.6,0,3.3,0,4.9,0c6.3,0,12.6,0,18.8,0
				c0.8,0,1.2,0.1,1.4,1c0.3,1.8,0.8,3.6,1.2,5.3c0.5,2.2,2.2,3.5,3.6,5.1c1.2,1.3,2.7,2,4.2,2.9c1.6,0.9,3.3,1.3,5.1,1.6
				c1.9,0.3,3.8,0.2,5.6-0.5c1.5-0.6,3.1-0.9,4.6-1.6c1.2-0.6,2.4-1.5,3.3-2.5c1.1-1.1,2.2-2.4,2.8-3.8c1-2.3,0.7-4.8,0.7-7.3
				c0-0.3,0-0.6-0.1-0.8c-0.6-1.2-1.1-2.5-1.9-3.7c-1-1.6-2.4-2.9-4.1-3.8c-1.1-0.6-2.1-1.2-3.2-1.7c-1.3-0.6-2.7-1.1-4.1-1.5
				c-1-0.3-2.1-0.5-3.2-0.8c-1.9-0.6-3.7-1.3-5.6-1.9c-0.8-0.3-1.6-0.5-2.4-0.8c-1.7-0.6-3.4-1.2-5-1.9c-1.9-0.8-3.8-1.5-5.6-2.5
				c-2-1.1-3.9-2.3-5.8-3.5c-1.7-1.2-3.5-2.3-5.1-3.7c-2.7-2.4-5-5.3-6.9-8.3C472.9,509.3,471.3,506.1,470,502.6z M200.3,397.5
				c-15.6,0-31.1,0-46.6,0c0,7.5,0,14.9,0,22.4c18.8,0,37.5,0,56.4,0C205.5,412.9,202.2,405.5,200.3,397.5z M153.8,343.3
				c0,6.9,0,13.7,0,20.6c0.2,0,0.4,0.1,0.5,0.1c15.1,0,30.2,0,45.3,0c0.2,0,0.5,0.1,0.7,0c0.2-0.1,0.5-0.4,0.6-0.6
				c0.3-1.1,0.5-2.3,0.8-3.4c0.2-0.8,0.4-1.6,0.8-2.4c0.5-1.2,1.2-2.3,1.7-3.5c0.9-1.9,1.7-3.8,2.6-5.6c0.9-1.7,1.9-3.3,2.9-5.1
				C191.1,343.3,172.5,343.3,153.8,343.3z M118,452.1c0-24.2,0-48.3,0-72.5c-0.5,0.8-0.8,1.6-1.1,2.5c-0.3,1-0.5,2-0.9,3
				c-0.4,1-0.9,1.9-1.2,2.9c-0.5,1.4-0.9,2.9-1.4,4.4c-0.6,1.6-1.3,3.2-1.9,4.8c-0.5,1.3-0.9,2.7-1.3,4c-0.2,0.5-0.5,0.9-0.6,1.3
				c-0.3,1-0.5,2-0.9,3c-0.6,1.8-1.2,3.6-1.9,5.4c-0.4,1-0.8,1.9-1.2,2.8c-0.5,1.3-0.9,2.5-1.4,3.8c-0.4,1.1-0.9,2.3-1.3,3.4
				c-0.7,1.9-1.4,3.8-2.1,5.7c-0.5,1.6-1,3.2-1.5,4.8c-0.6,1.6-1.2,3.2-1.9,4.8c-0.2,0.5-0.5,0.9-0.7,1.4c-0.3,1-0.5,2.1-0.8,3.1
				c-0.4,1.2-0.8,2.4-1.3,3.5c-0.3,0.9-0.7,1.8-1.1,2.7c-0.6,1.7-1.2,3.4-1.9,5.2C100.8,452.1,109.4,452.1,118,452.1z M169.1,293.8
				c2.2-0.3,4.3-0.6,6.4-0.9c0.9-0.2,1.8-0.4,2.7-0.8c1.2-0.5,2.3-1.1,3.5-1.7c1.6-0.8,3.2-1.6,4.7-2.6c2.2-1.5,3.8-3.5,5.2-5.7
				c0.7-1,1.4-2.2,1.4-3.3c0.1-3.4,0.7-6.9-1.1-10.2c-1.2-2.1-2.6-4-4.3-5.6c-1.6-1.4-3.4-2.7-5.2-3.8c-1.4-0.9-3-1.6-4.6-2.1
				c-1.3-0.5-2.8-0.6-4.2-0.8c-0.2,0-0.3-0.1-0.4-0.2c-1.2-0.2-2.5-0.4-3.8-0.7C169.1,268.4,169.1,280.9,169.1,293.8z M311,270.6
				c-0.3,0.5-0.7,1-0.8,1.5c-0.3,1.8-1.2,3.3-2.3,4.7c-1.6,2.2-3.4,4.4-5.8,5.8c-1.2,0.7-2.2,1.7-3.2,2.6c1,1.2,1.9,2.3,2.7,3.2
				c0.6-0.3,1-0.8,1.5-0.8c7.1,0,14.2,0,21.2,0c0.9,0,1.2,0.3,1.1,1.2c-0.1,1.3,0.6,2.5,1.5,3.2c1.5,1.3,3.2,2.3,5.2,2.8
				c1.4,0.4,2.8,0.8,4.2,0.6c1.7-0.1,3.4-0.7,5-1.2c0.8-0.2,1.5-0.7,2.2-1.2c0.9-0.7,1.6-1.5,2.2-2.6c0.6-1.1,0.6-2.3,0.3-3.2
				c-0.8-2.2-2.5-3.7-4.8-4.4c-0.9-0.3-1.9-0.4-2.8-0.7c-1.5-0.6-2.9-1.3-4.6-1.3c-0.2,0-0.4-0.1-0.6-0.2c-1.3-0.4-2.6-0.7-3.9-1.1
				c-1.3-0.3-2.7-0.6-4-0.9c-0.8-0.2-1.6-0.4-2.3-0.7c-1.7-0.8-3.3-1.6-5-2.5c-1.1-0.6-2.2-1-3.2-1.7
				C313.5,272.9,312.3,271.7,311,270.6z M385.4,368.5c-4.2,11.5-8.3,22.7-12.4,34c8.2,0,16.2,0,24.3,0
				C393.3,391.1,389.3,379.9,385.4,368.5z M216.6,334.6c12.5-13.1,27.3-21.1,44.9-24c-15,0-29.9,0-44.9,0
				C216.6,318.6,216.6,326.5,216.6,334.6z M171.9,510.3c-0.3,0.3-0.7,0.5-0.8,0.8c-0.3,0.6-0.4,1.2-0.6,1.8
				c-0.9,2.8-1.9,5.6-2.8,8.4c-0.2,0.7-0.5,1.5-0.7,2.2c-0.4,1.1-0.8,2.3-1.3,3.4c-0.4,0.9-0.7,1.9-1.1,2.8c-0.5,1.2-1,2.5-1.5,3.7
				c-0.3,1-0.5,2.1-0.8,3.1c-0.2,0.8-0.5,1.6-0.8,2.4c-0.5,1.3-1.1,2.7-1.7,4c7.7,0,15.4,0,23.2,0
				C179.2,532,175.6,521.3,171.9,510.3z M517.2,287.6c0.4,1.1,0.4,2.4,1.1,3.2c1,1.2,2,2.5,3.7,3.1c2.7,0.9,5.2,2.3,8.2,1.2
				c1.9-0.6,3.9-0.9,5.6-2c2-1.2,3-5.1,1.8-7.1c-1.3-2.1-3.5-2.8-5.6-3.5c-2-0.7-4.1-1-6.2-1.5c-1-0.2-2-0.5-3.1-0.7
				c-1.4-0.4-2.9-0.8-4.3-1.2c-1-0.3-2-0.4-3-0.8c-1.8-0.8-3.6-1.7-5.5-2.6c0,4.1,0,8,0,12C512.4,287.6,514.8,287.6,517.2,287.6z
				 M219.2,293.6c0.3,0,0.5,0.1,0.7,0.1c9,0,18,0,27,0c0.9,0,1-0.4,1-1.1c0-2.8-0.1-5.5,0-8.3c0-1.1-0.3-1.4-1.4-1.4
				c-8.6,0-17.3,0-25.9,0c-0.4,0-0.8,0-1.3,0.1C219.2,286.6,219.2,290.1,219.2,293.6z M219.3,266.2c0.3,0,0.5,0.1,0.6,0.1
				c9,0,18,0,27,0c0.8,0,1-0.4,1-1.1c0-2.8-0.1-5.6,0-8.4c0-1.1-0.4-1.3-1.4-1.3c-8.7,0-17.3,0-26,0c-0.4,0-0.8,0-1.2,0.1
				C219.3,259.2,219.3,262.7,219.3,266.2z M270.8,256.3c-0.1,0.1-0.1,0.2-0.1,0.2c0,6.1,0,12.3,0,18.4c0,0.2,0.5,0.7,0.8,0.7
				c1.4,0,2.8-0.2,4.2-0.5c1.9-0.4,3.8-0.7,5.6-1.5c1.3-0.6,2.7-1.2,3.8-2.1c1.1-0.8,2.2-1.8,2.8-3c0.8-1.4,1.1-3,0.2-4.8
				c-0.9-1.8-2.2-3.1-3.8-4c-1.5-0.9-3.3-1.5-5-2.2c-1.2-0.5-2.5-1-3.7-1.2C274,256.2,272.4,256.3,270.8,256.3z M353.2,259
				c-0.4,0-0.8-0.1-1.2-0.1c-2.6,0-5.1,0-7.7,0c-1,0-1.6-0.4-1.6-1.5c0-0.4-0.1-0.9-0.3-1c-1.8-1.2-3.9-1.7-6.1-2
				c-1.9-0.3-3.7,0.3-5.5,1.2c-1.1,0.6-2.1,2.1-2,3.2c0.2,1.5,1,2.8,2.3,3.5c1.2,0.7,2.7,1,4.1,1.4c1,0.3,2.1,0.5,3.2,0.8
				c1.4,0.4,2.7,0.9,4.1,1.2c1.5,0.3,3.1,0.5,4.6,0.8c0.1,0,0.3,0.2,0.4,0.2c0.6,0.2,1.2,0.3,1.7,0.4
				C350.6,264.3,351.9,261.7,353.2,259z M54.5,268.9c-2.6,5.5-5.1,10.7-7.6,16c4.9,0,9.9,0,15.1,0c-0.1-0.4-0.1-0.8-0.3-1.1
				c-0.8-1.6-1.6-3.1-2.4-4.7c-0.7-1.4-1.2-2.8-1.8-4.2c-0.7-1.7-1.5-3.5-2.3-5.2C55.1,269.3,54.7,269.1,54.5,268.9z M196.3,309.6
				c0-1.9,0-3.8,0-6c-5.3,2.8-10.7,4.7-16.3,6C185.4,309.6,190.8,309.6,196.3,309.6z"/>
		</g>
	</g>
</g>
</svg>
